<svg width="46" height="46" viewBox="0 0 46 46" fill="none" xmlns="http://www.w3.org/2000/svg">
<mask id="mask0_310_834" style="mask-type:alpha" maskUnits="userSpaceOnUse" x="0" y="0" width="46" height="46">
<rect width="46" height="46" fill="#D9D9D9"/>
</mask>
<g mask="url(#mask0_310_834)">
<path d="M1.9165 38.3334V32.9667C1.9165 31.8806 2.19602 30.8824 2.75505 29.972C3.31407 29.0615 4.05678 28.3667 4.98317 27.8876C6.96373 26.8973 8.97623 26.1546 11.0207 25.6595C13.0651 25.1643 15.1415 24.9167 17.2498 24.9167C19.3582 24.9167 21.4346 25.1643 23.479 25.6595C25.5234 26.1546 27.536 26.8973 29.5165 27.8876C30.4429 28.3667 31.1856 29.0615 31.7446 29.972C32.3037 30.8824 32.5832 31.8806 32.5832 32.9667V38.3334H1.9165ZM36.4165 38.3334V32.5834C36.4165 31.1779 36.0252 29.8282 35.2425 28.5345C34.4599 27.2407 33.3498 26.1306 31.9123 25.2042C33.5415 25.3959 35.0748 25.7233 36.5123 26.1865C37.9498 26.6497 39.2915 27.2167 40.5373 27.8876C41.6873 28.5265 42.5658 29.2372 43.1728 30.0199C43.7797 30.8025 44.0832 31.657 44.0832 32.5834V38.3334H36.4165ZM17.2498 23.0001C15.1415 23.0001 13.3366 22.2494 11.8353 20.748C10.3339 19.2466 9.58317 17.4417 9.58317 15.3334C9.58317 13.2251 10.3339 11.4202 11.8353 9.91883C13.3366 8.41744 15.1415 7.66675 17.2498 7.66675C19.3582 7.66675 21.163 8.41744 22.6644 9.91883C24.1658 11.4202 24.9165 13.2251 24.9165 15.3334C24.9165 17.4417 24.1658 19.2466 22.6644 20.748C21.163 22.2494 19.3582 23.0001 17.2498 23.0001ZM36.4165 15.3334C36.4165 17.4417 35.6658 19.2466 34.1644 20.748C32.663 22.2494 30.8582 23.0001 28.7498 23.0001C28.3984 23.0001 27.9512 22.9602 27.4082 22.8803C26.8651 22.8004 26.4179 22.7126 26.0665 22.6167C26.929 21.5945 27.5919 20.4605 28.055 19.2147C28.5182 17.9688 28.7498 16.6751 28.7498 15.3334C28.7498 13.9917 28.5182 12.698 28.055 11.4522C27.5919 10.2063 26.929 9.0723 26.0665 8.05008C26.5137 7.89036 26.9609 7.78654 27.4082 7.73862C27.8554 7.69071 28.3026 7.66675 28.7498 7.66675C30.8582 7.66675 32.663 8.41744 34.1644 9.91883C35.6658 11.4202 36.4165 13.2251 36.4165 15.3334ZM5.74984 34.5001H28.7498V32.9667C28.7498 32.6154 28.662 32.2959 28.4863 32.0084C28.3106 31.7209 28.079 31.4973 27.7915 31.3376C26.0665 30.4751 24.3255 29.8282 22.5686 29.397C20.8116 28.9657 19.0387 28.7501 17.2498 28.7501C15.4609 28.7501 13.688 28.9657 11.9311 29.397C10.1741 29.8282 8.43317 30.4751 6.70817 31.3376C6.42067 31.4973 6.18907 31.7209 6.01338 32.0084C5.83768 32.2959 5.74984 32.6154 5.74984 32.9667V34.5001ZM17.2498 19.1667C18.304 19.1667 19.2064 18.7914 19.9571 18.0407C20.7078 17.29 21.0832 16.3876 21.0832 15.3334C21.0832 14.2792 20.7078 13.3768 19.9571 12.6261C19.2064 11.8754 18.304 11.5001 17.2498 11.5001C16.1957 11.5001 15.2932 11.8754 14.5425 12.6261C13.7919 13.3768 13.4165 14.2792 13.4165 15.3334C13.4165 16.3876 13.7919 17.29 14.5425 18.0407C15.2932 18.7914 16.1957 19.1667 17.2498 19.1667Z" fill="#0C0563"/>
</g>
</svg>
