<svg width="31" height="31" viewBox="0 0 31 31" fill="none" xmlns="http://www.w3.org/2000/svg">
<mask id="mask0_310_847" style="mask-type:alpha" maskUnits="userSpaceOnUse" x="0" y="0" width="31" height="31">
<rect width="31" height="31" fill="#D9D9D9"/>
</mask>
<g mask="url(#mask0_310_847)">
<path d="M9.22051 31H3.17949C2.30513 31 1.55662 30.6887 0.933974 30.066C0.311325 29.4434 0 28.6949 0 27.8205V21.7795C1.27179 21.7795 2.38462 21.3754 3.33846 20.5673C4.29231 19.7592 4.76923 18.7325 4.76923 17.4872C4.76923 16.2419 4.29231 15.2152 3.33846 14.4071C2.38462 13.5989 1.27179 13.1949 0 13.1949V7.15385C0 6.27949 0.311325 5.53098 0.933974 4.90833C1.55662 4.28568 2.30513 3.97436 3.17949 3.97436H9.53846C9.53846 2.86154 9.92265 1.92094 10.691 1.15256C11.4594 0.384188 12.4 0 13.5128 0C14.6256 0 15.5662 0.384188 16.3346 1.15256C17.103 1.92094 17.4872 2.86154 17.4872 3.97436H23.8462C24.7205 3.97436 25.469 4.28568 26.0917 4.90833C26.7143 5.53098 27.0256 6.27949 27.0256 7.15385V13.5128C28.1385 13.5128 29.0791 13.897 29.8474 14.6654C30.6158 15.4338 31 16.3744 31 17.4872C31 18.6 30.6158 19.5406 29.8474 20.309C29.0791 21.0774 28.1385 21.4615 27.0256 21.4615V27.8205C27.0256 28.6949 26.7143 29.4434 26.0917 30.066C25.469 30.6887 24.7205 31 23.8462 31H17.8051C17.8051 29.6752 17.3878 28.5491 16.5532 27.6218C15.7186 26.6944 14.7051 26.2308 13.5128 26.2308C12.3205 26.2308 11.3071 26.6944 10.4724 27.6218C9.63782 28.5491 9.22051 29.6752 9.22051 31ZM3.17949 27.8205H6.55769C7.19359 26.0718 8.21368 24.8397 9.61795 24.1244C11.0222 23.409 12.3205 23.0513 13.5128 23.0513C14.7051 23.0513 16.0034 23.409 17.4077 24.1244C18.812 24.8397 19.8321 26.0718 20.4679 27.8205H23.8462V18.2821H27.0256C27.2376 18.2821 27.4231 18.2026 27.5821 18.0436C27.741 17.8846 27.8205 17.6991 27.8205 17.4872C27.8205 17.2752 27.741 17.0897 27.5821 16.9308C27.4231 16.7718 27.2376 16.6923 27.0256 16.6923H23.8462V7.15385H14.3077V3.97436C14.3077 3.76239 14.2282 3.57692 14.0692 3.41795C13.9103 3.25897 13.7248 3.17949 13.5128 3.17949C13.3009 3.17949 13.1154 3.25897 12.9564 3.41795C12.7974 3.57692 12.7179 3.76239 12.7179 3.97436V7.15385H3.17949V10.6513C4.61026 11.1812 5.76282 12.0688 6.63718 13.3141C7.51154 14.5594 7.94872 15.9504 7.94872 17.4872C7.94872 18.9974 7.51154 20.3752 6.63718 21.6205C5.76282 22.8658 4.61026 23.7667 3.17949 24.3231V27.8205Z" fill="#0C0563"/>
</g>
</svg>
