<svg width="53" height="53" viewBox="0 0 53 53" fill="none" xmlns="http://www.w3.org/2000/svg">
<g filter="url(#filter0_d_627_2173)">
<path d="M12.8333 43.0625C10.6986 43.0625 8.87674 42.308 7.36771 40.799C5.85868 39.2899 5.10417 37.4681 5.10417 35.3333C5.10417 33.1986 5.85868 31.3767 7.36771 29.8677C8.87674 28.3587 10.6986 27.6042 12.8333 27.6042C14.9681 27.6042 16.7899 28.3587 18.299 29.8677C19.808 31.3767 20.5625 33.1986 20.5625 35.3333C20.5625 36.1431 20.4429 36.9252 20.2036 37.6797C19.9644 38.4342 19.6056 39.1427 19.1271 39.8052V38.3146C20.2312 38.7931 21.3722 39.1519 22.55 39.3911C23.7278 39.6304 24.9056 39.75 26.0833 39.75C31.0153 39.75 35.1927 38.0385 38.6156 34.6156C42.0385 31.1927 43.75 27.0153 43.75 22.0833H48.1667C48.1667 25.1382 47.587 28.009 46.4276 30.6958C45.2682 33.3826 43.6948 35.7198 41.7073 37.7073C39.7198 39.6948 37.3826 41.2682 34.6958 42.4276C32.009 43.587 29.1382 44.1667 26.0833 44.1667C24.4271 44.1667 22.8076 43.9918 21.225 43.6422C19.6424 43.2925 18.1149 42.7681 16.6427 42.0688C16.0538 42.4 15.4373 42.6484 14.7932 42.8141C14.1491 42.9797 13.4958 43.0625 12.8333 43.0625ZM12.8333 38.6458C13.7535 38.6458 14.5356 38.3238 15.1797 37.6797C15.8238 37.0356 16.1458 36.2535 16.1458 35.3333C16.1458 34.4132 15.8238 33.6311 15.1797 32.987C14.5356 32.3429 13.7535 32.0208 12.8333 32.0208C11.9132 32.0208 11.1311 32.3429 10.487 32.987C9.84288 33.6311 9.52083 34.4132 9.52083 35.3333C9.52083 36.2535 9.84288 37.0356 10.487 37.6797C11.1311 38.3238 11.9132 38.6458 12.8333 38.6458ZM26.0833 29.8125C23.9486 29.8125 22.1267 29.058 20.6177 27.549C19.1087 26.0399 18.3542 24.2181 18.3542 22.0833C18.3542 19.9486 19.1087 18.1267 20.6177 16.6177C22.1267 15.1087 23.9486 14.3542 26.0833 14.3542C28.2181 14.3542 30.0399 15.1087 31.549 16.6177C33.058 18.1267 33.8125 19.9486 33.8125 22.0833C33.8125 24.2181 33.058 26.0399 31.549 27.549C30.0399 29.058 28.2181 29.8125 26.0833 29.8125ZM4 22.0833C4 19.0285 4.57969 16.1576 5.73906 13.4708C6.89844 10.784 8.47187 8.44687 10.4594 6.45937C12.4469 4.47187 14.784 2.89844 17.4708 1.73906C20.1576 0.579687 23.0285 0 26.0833 0C27.7396 0 29.359 0.174826 30.9417 0.524479C32.5243 0.874132 34.0517 1.39861 35.524 2.09792C36.1129 1.76667 36.7293 1.51823 37.3734 1.3526C38.0175 1.18698 38.6708 1.10417 39.3333 1.10417C41.4681 1.10417 43.2899 1.85868 44.799 3.36771C46.308 4.87674 47.0625 6.69861 47.0625 8.83333C47.0625 10.9681 46.308 12.7899 44.799 14.299C43.2899 15.808 41.4681 16.5625 39.3333 16.5625C37.1986 16.5625 35.3767 15.808 33.8677 14.299C32.3587 12.7899 31.6042 10.9681 31.6042 8.83333C31.6042 8.02361 31.7238 7.24149 31.963 6.48698C32.2023 5.73247 32.5611 5.02396 33.0396 4.36146V5.85208C31.9354 5.37361 30.7944 5.01476 29.6167 4.77552C28.4389 4.53628 27.2611 4.41667 26.0833 4.41667C21.1514 4.41667 16.974 6.12813 13.551 9.55104C10.1281 12.974 8.41667 17.1514 8.41667 22.0833H4ZM39.3333 12.1458C40.2535 12.1458 41.0356 11.8238 41.6797 11.1797C42.3238 10.5356 42.6458 9.75347 42.6458 8.83333C42.6458 7.91319 42.3238 7.13108 41.6797 6.48698C41.0356 5.84288 40.2535 5.52083 39.3333 5.52083C38.4132 5.52083 37.6311 5.84288 36.987 6.48698C36.3429 7.13108 36.0208 7.91319 36.0208 8.83333C36.0208 9.75347 36.3429 10.5356 36.987 11.1797C37.6311 11.8238 38.4132 12.1458 39.3333 12.1458Z" fill="url(#paint0_linear_627_2173)"/>
</g>
<defs>
<filter id="filter0_d_627_2173" x="0" y="0" width="52.1665" height="52.167" filterUnits="userSpaceOnUse" color-interpolation-filters="sRGB">
<feFlood flood-opacity="0" result="BackgroundImageFix"/>
<feColorMatrix in="SourceAlpha" type="matrix" values="0 0 0 0 0 0 0 0 0 0 0 0 0 0 0 0 0 0 127 0" result="hardAlpha"/>
<feOffset dy="4"/>
<feGaussianBlur stdDeviation="2"/>
<feComposite in2="hardAlpha" operator="out"/>
<feColorMatrix type="matrix" values="0 0 0 0 0 0 0 0 0 0 0 0 0 0 0 0 0 0 0.25 0"/>
<feBlend mode="normal" in2="BackgroundImageFix" result="effect1_dropShadow_627_2173"/>
<feBlend mode="normal" in="SourceGraphic" in2="effect1_dropShadow_627_2173" result="shape"/>
</filter>
<linearGradient id="paint0_linear_627_2173" x1="26.0833" y1="0" x2="26.0833" y2="44.1667" gradientUnits="userSpaceOnUse">
<stop stop-color="#1D05FF"/>
<stop offset="1" stop-color="#6910AF"/>
</linearGradient>
</defs>
</svg>
