<svg width="32" height="8" viewBox="0 0 32 8" fill="none" xmlns="http://www.w3.org/2000/svg">
<path d="M5.3557 8C7.78717 8 9.75827 6.20914 9.75827 4C9.75827 1.79086 7.78717 0 5.3557 0C2.92422 0 0.953125 1.79086 0.953125 4C0.953125 6.20914 2.92422 8 5.3557 8Z" fill="#0C0563" fill-opacity="0.8"/>
<path d="M16.3625 8C18.794 8 20.7651 6.20914 20.7651 4C20.7651 1.79086 18.794 0 16.3625 0C13.9311 0 11.96 1.79086 11.96 4C11.96 6.20914 13.9311 8 16.3625 8Z" fill="#0C0563" fill-opacity="0.8"/>
<path d="M27.3694 8C29.8008 8 31.7719 6.20914 31.7719 4C31.7719 1.79086 29.8008 0 27.3694 0C24.9379 0 22.9668 1.79086 22.9668 4C22.9668 6.20914 24.9379 8 27.3694 8Z" fill="#0C0563" fill-opacity="0.8"/>
</svg>
