<svg width="21" height="26" viewBox="0 0 21 26" fill="none" xmlns="http://www.w3.org/2000/svg">
<path d="M5.15137 10.1667V6.23809C5.15137 4.84886 5.70324 3.51653 6.68557 2.5342C7.6679 1.55187 9.00023 1 10.3895 1C11.7787 1 13.111 1.55187 14.0933 2.5342C15.0757 3.51653 15.6275 4.84886 15.6275 6.23809V10.1667" stroke="#0C0563" stroke-width="2" stroke-linecap="round"/>
<path d="M1.22266 10.1667H19.556V21.9524C19.556 22.6471 19.28 23.3132 18.7889 23.8044C18.2977 24.2956 17.6315 24.5715 16.9369 24.5715H3.8417C3.14709 24.5715 2.48092 24.2956 1.98976 23.8044C1.49859 23.3132 1.22266 22.6471 1.22266 21.9524V10.1667Z" stroke="#0C0563" stroke-width="2" stroke-linejoin="round"/>
<path d="M13.6631 17.3691H13.6769V17.383H13.6631V17.3691Z" stroke="#0C0563" stroke-width="3" stroke-linejoin="round"/>
</svg>
