<svg width="45" height="45" viewBox="0 0 45 45" fill="none" xmlns="http://www.w3.org/2000/svg">
<path fill-rule="evenodd" clip-rule="evenodd" d="M22.4998 0.416679C10.3032 0.416679 0.416504 10.3034 0.416504 22.5C0.416504 34.6966 10.3032 44.5833 22.4998 44.5833C34.6965 44.5833 44.5832 34.6966 44.5832 22.5C44.5832 10.3034 34.6965 0.416679 22.4998 0.416679ZM14.7707 16.9792C14.7707 15.9642 14.9706 14.9591 15.359 14.0214C15.7474 13.0836 16.3168 12.2316 17.0345 11.5138C17.7522 10.7961 18.6043 10.2268 19.542 9.83836C20.4798 9.44993 21.4848 9.25001 22.4998 9.25001C23.5148 9.25001 24.5199 9.44993 25.4577 9.83836C26.3954 10.2268 27.2475 10.7961 27.9652 11.5138C28.6829 12.2316 29.2522 13.0836 29.6407 14.0214C30.0291 14.9591 30.229 15.9642 30.229 16.9792C30.229 19.0291 29.4147 20.995 27.9652 22.4445C26.5157 23.894 24.5497 24.7083 22.4998 24.7083C20.4499 24.7083 18.484 23.894 17.0345 22.4445C15.585 20.995 14.7707 19.0291 14.7707 16.9792ZM36.3196 33.5063C34.666 35.5852 32.5643 37.2638 30.1714 38.417C27.7785 39.5703 25.1561 40.1684 22.4998 40.1667C19.8435 40.1684 17.2211 39.5703 14.8282 38.417C12.4353 37.2638 10.3337 35.5852 8.68009 33.5063C12.2598 30.9381 17.1446 29.125 22.4998 29.125C27.855 29.125 32.7399 30.9381 36.3196 33.5063Z" fill="#0C0563"/>
</svg>
