<svg width="21" height="21" viewBox="0 0 21 21" fill="none" xmlns="http://www.w3.org/2000/svg">
<mask id="mask0_223_400" style="mask-type:alpha" maskUnits="userSpaceOnUse" x="0" y="0" width="21" height="21">
<rect width="21" height="21" fill="#D9D9D9"/>
</mask>
<g mask="url(#mask0_223_400)">
<path d="M15.75 12.25V9.625H13.125V7.875H15.75V5.25H17.5V7.875H20.125V9.625H17.5V12.25H15.75ZM7.875 10.5C6.9125 10.5 6.08854 10.1573 5.40312 9.47188C4.71771 8.78646 4.375 7.9625 4.375 7C4.375 6.0375 4.71771 5.21354 5.40312 4.52813C6.08854 3.84271 6.9125 3.5 7.875 3.5C8.8375 3.5 9.66146 3.84271 10.3469 4.52813C11.0323 5.21354 11.375 6.0375 11.375 7C11.375 7.9625 11.0323 8.78646 10.3469 9.47188C9.66146 10.1573 8.8375 10.5 7.875 10.5ZM0.875 17.5V15.05C0.875 14.5542 1.0026 14.0984 1.25781 13.6828C1.51302 13.2672 1.85208 12.95 2.275 12.7313C3.17917 12.2792 4.09792 11.9401 5.03125 11.7141C5.96458 11.488 6.9125 11.375 7.875 11.375C8.8375 11.375 9.78542 11.488 10.7187 11.7141C11.6521 11.9401 12.5708 12.2792 13.475 12.7313C13.8979 12.95 14.237 13.2672 14.4922 13.6828C14.7474 14.0984 14.875 14.5542 14.875 15.05V17.5H0.875ZM2.625 15.75H13.125V15.05C13.125 14.8896 13.0849 14.7438 13.0047 14.6125C12.9245 14.4813 12.8187 14.3792 12.6875 14.3063C11.9 13.9125 11.1052 13.6172 10.3031 13.4203C9.50104 13.2234 8.69167 13.125 7.875 13.125C7.05833 13.125 6.24896 13.2234 5.44687 13.4203C4.64479 13.6172 3.85 13.9125 3.0625 14.3063C2.93125 14.3792 2.82552 14.4813 2.74531 14.6125C2.6651 14.7438 2.625 14.8896 2.625 15.05V15.75ZM7.875 8.75C8.35625 8.75 8.76823 8.57865 9.11094 8.23594C9.45365 7.89323 9.625 7.48125 9.625 7C9.625 6.51875 9.45365 6.10677 9.11094 5.76406C8.76823 5.42135 8.35625 5.25 7.875 5.25C7.39375 5.25 6.98177 5.42135 6.63906 5.76406C6.29635 6.10677 6.125 6.51875 6.125 7C6.125 7.48125 6.29635 7.89323 6.63906 8.23594C6.98177 8.57865 7.39375 8.75 7.875 8.75Z" fill="#1E1E1E"/>
</g>
</svg>
