<svg width="34" height="31" viewBox="0 0 34 31" fill="none" xmlns="http://www.w3.org/2000/svg">
<path d="M33.7765 28.2719C31.6182 24.6919 28.2482 21.9024 24.2088 20.3525C26.2175 18.9286 27.7013 16.9435 28.45 14.6783C29.1987 12.4131 29.1743 9.98273 28.3803 7.73138C27.5862 5.48003 26.0628 3.52187 24.0259 2.13428C21.9889 0.746682 19.5416 0 17.0307 0C14.5197 0 12.0725 0.746682 10.0355 2.13428C7.99851 3.52187 6.47512 5.48003 5.68109 7.73138C4.88706 9.98273 4.86266 12.4131 5.61134 14.6783C6.36002 16.9435 7.84382 18.9286 9.85257 20.3525C5.81319 21.9024 2.44313 24.6919 0.284904 28.2719C0.151173 28.4751 0.0620414 28.7017 0.0228089 28.9381C-0.0164236 29.1745 -0.00495651 29.416 0.0565287 29.6482C0.118014 29.8803 0.228262 30.0985 0.380719 30.2896C0.533176 30.4806 0.724729 30.6408 0.94399 30.7605C1.16325 30.8803 1.40575 30.9571 1.65706 30.9865C1.90837 31.0159 2.16336 30.9972 2.40688 30.9316C2.65041 30.866 2.87748 30.7547 3.07462 30.6045C3.27175 30.4543 3.43491 30.2682 3.55441 30.0572C6.40676 25.3975 11.444 22.6184 17.0307 22.6184C22.6173 22.6184 27.6546 25.399 30.5069 30.0572C30.7659 30.4507 31.1767 30.7337 31.6524 30.8462C32.1281 30.9587 32.6314 30.892 33.056 30.6602C33.4806 30.4283 33.7932 30.0495 33.9276 29.6038C34.0621 29.1581 34.0079 28.6805 33.7765 28.2719ZM8.84511 11.3114C8.84511 9.78131 9.32519 8.28557 10.2246 7.01334C11.1241 5.74111 12.4025 4.74952 13.8982 4.16397C15.3939 3.57843 17.0398 3.42522 18.6276 3.72373C20.2154 4.02224 21.674 4.75905 22.8187 5.841C23.9635 6.92295 24.7431 8.30143 25.059 9.80213C25.3748 11.3028 25.2127 12.8584 24.5932 14.272C23.9736 15.6856 22.9244 16.8939 21.5783 17.7439C20.2322 18.594 18.6496 19.0478 17.0307 19.0478C14.8605 19.0454 12.7799 18.2296 11.2454 16.7792C9.71082 15.3289 8.84761 13.3625 8.84511 11.3114Z" fill="#0C0563" fill-opacity="0.45"/>
</svg>
