<svg width="50" height="32" viewBox="0 0 50 32" fill="none" xmlns="http://www.w3.org/2000/svg">
<path d="M22.87 21.9724C25.0008 20.5458 26.6185 18.4676 27.4839 16.0449C28.3493 13.6223 28.4164 10.9839 27.6754 8.51987C26.9345 6.05587 25.4246 3.89708 23.3693 2.36275C21.3139 0.828418 18.8221 0 16.2623 0C13.7026 0 11.2108 0.828418 9.1554 2.36275C7.10003 3.89708 5.59022 6.05587 4.84922 8.51987C4.10823 10.9839 4.17541 13.6223 5.04081 16.0449C5.90622 18.4676 7.5239 20.5458 9.65466 21.9724C5.80033 23.401 2.50865 26.0446 0.270771 29.5087C0.153156 29.6845 0.0714604 29.882 0.030433 30.0899C-0.0105943 30.2977 -0.010135 30.5117 0.0317844 30.7193C0.0737037 30.9269 0.156247 31.1241 0.274616 31.2994C0.392984 31.4747 0.544818 31.6246 0.72129 31.7403C0.897763 31.8561 1.09535 31.9354 1.30258 31.9737C1.5098 32.012 1.72253 32.0084 1.92838 31.9633C2.13424 31.9182 2.32913 31.8324 2.50172 31.7108C2.6743 31.5893 2.82115 31.4345 2.93371 31.2554C4.37725 29.0226 6.35253 27.1879 8.68018 25.9178C11.0078 24.6476 13.6141 23.9824 16.2623 23.9824C18.9106 23.9824 21.5168 24.6476 23.8445 25.9178C26.1721 27.1879 28.1474 29.0226 29.591 31.2554C29.8241 31.6039 30.1843 31.8461 30.5937 31.9297C31.003 32.0133 31.4287 31.9315 31.7785 31.702C32.1284 31.4725 32.3744 31.1138 32.4633 30.7034C32.5523 30.2929 32.4771 29.8638 32.2539 29.5087C30.016 26.0446 26.7243 23.401 22.87 21.9724ZM7.51834 11.9959C7.51834 10.2567 8.03117 8.55657 8.99197 7.11051C9.95278 5.66444 11.3184 4.53737 12.9162 3.87182C14.5139 3.20627 16.272 3.03213 17.9682 3.37143C19.6644 3.71072 21.2224 4.54821 22.4453 5.77799C23.6681 7.00777 24.5009 8.5746 24.8383 10.2803C25.1757 11.9861 25.0025 13.7542 24.3407 15.3609C23.6789 16.9677 22.5582 18.3411 21.1202 19.3073C19.6823 20.2735 17.9917 20.7892 16.2623 20.7892C13.9441 20.7866 11.7215 19.8593 10.0823 18.2108C8.44306 16.5623 7.52097 14.3272 7.51834 11.9959ZM49.2788 31.721C48.9257 31.9526 48.4956 32.0337 48.083 31.9463C47.6705 31.859 47.3093 31.6105 47.0789 31.2554C45.6371 29.0213 43.6621 27.1858 41.334 25.9161C39.0059 24.6465 36.3987 23.9833 33.7503 23.9868C33.3287 23.9868 32.9243 23.8184 32.6261 23.5186C32.328 23.2187 32.1605 22.8121 32.1605 22.388C32.1605 21.964 32.328 21.5574 32.6261 21.2575C32.9243 20.9577 33.3287 20.7892 33.7503 20.7892C35.038 20.788 36.3095 20.5008 37.474 19.9481C38.6386 19.3954 39.6673 18.5909 40.4868 17.592C41.3063 16.5931 41.8963 15.4245 42.2146 14.1698C42.533 12.915 42.5718 11.605 42.3284 10.3334C42.0849 9.06179 41.5652 7.85995 40.8063 6.81374C40.0475 5.76754 39.0682 4.9028 37.9385 4.28132C36.8088 3.65984 35.5565 3.29695 34.2712 3.21858C32.9859 3.14022 31.6992 3.34831 30.5031 3.82799C30.3081 3.91277 30.0982 3.95739 29.8857 3.95919C29.6733 3.961 29.4626 3.91996 29.2662 3.83851C29.0698 3.75705 28.8916 3.63683 28.7421 3.48495C28.5927 3.33307 28.4751 3.15261 28.3962 2.95423C28.3173 2.75585 28.2787 2.54358 28.2827 2.32996C28.2868 2.11633 28.3334 1.9057 28.4198 1.71049C28.5061 1.51528 28.6305 1.33946 28.7856 1.19342C28.9407 1.04738 29.1233 0.934084 29.3227 0.860223C32.0601 -0.237651 35.1048 -0.277158 37.8694 0.749319C40.634 1.7758 42.9227 3.79553 44.294 6.41888C45.6652 9.04223 46.0218 12.0833 45.295 14.9555C44.5681 17.8276 42.8094 20.3273 40.358 21.9724C44.2123 23.401 47.504 26.0446 49.7419 29.5087C49.9722 29.8638 50.0527 30.2964 49.9659 30.7113C49.8791 31.1262 49.6319 31.4894 49.2788 31.721Z" fill="#0C0563" fill-opacity="0.45"/>
</svg>
