<svg width="41" height="43" viewBox="0 0 41 43" fill="none" xmlns="http://www.w3.org/2000/svg">
<path d="M20.5002 0.416748C16.4004 0.416748 12.4685 2.04539 9.56947 4.94439C6.67047 7.84339 5.04183 11.7753 5.04183 15.8751V23.6661C5.04215 24.0087 4.96276 24.3466 4.80995 24.6532L1.01824 32.2344C0.833024 32.6048 0.745564 33.0164 0.764173 33.4301C0.782781 33.8438 0.90684 34.2458 1.12457 34.5981C1.34229 34.9503 1.64645 35.2411 2.00817 35.4427C2.36988 35.6443 2.77713 35.7501 3.19125 35.7501H37.8091C38.2232 35.7501 38.6304 35.6443 38.9922 35.4427C39.3539 35.2411 39.658 34.9503 39.8758 34.5981C40.0935 34.2458 40.2175 33.8438 40.2362 33.4301C40.2548 33.0164 40.1673 32.6048 39.9821 32.2344L36.1926 24.6532C36.039 24.3468 35.9589 24.0088 35.9585 23.6661V15.8751C35.9585 11.7753 34.3299 7.84339 31.4309 4.94439C28.5319 2.04539 24.6 0.416748 20.5002 0.416748ZM20.5002 42.3751C19.1296 42.3758 17.7925 41.9514 16.6732 41.1604C15.5539 40.3693 14.7074 39.2506 14.2506 37.9584H26.7497C26.2929 39.2506 25.4465 40.3693 24.3272 41.1604C23.2079 41.9514 21.8708 42.3758 20.5002 42.3751Z" fill="#0C0563"/>
</svg>
