<svg width="53" height="53" viewBox="0 0 53 53" fill="none" xmlns="http://www.w3.org/2000/svg">
<path d="M26.5002 4.41675C22.4004 4.41675 18.4685 6.04539 15.5695 8.94439C12.6705 11.8434 11.0418 15.7753 11.0418 19.8751V27.6661C11.0421 28.0087 10.9628 28.3466 10.81 28.6532L7.01824 36.2344C6.83302 36.6048 6.74556 37.0164 6.76417 37.4301C6.78278 37.8438 6.90684 38.2458 7.12457 38.5981C7.34229 38.9503 7.64645 39.2411 8.00817 39.4427C8.36988 39.6443 8.77713 39.7501 9.19125 39.7501H43.8091C44.2232 39.7501 44.6304 39.6443 44.9922 39.4427C45.3539 39.2411 45.658 38.9503 45.8758 38.5981C46.0935 38.2458 46.2175 37.8438 46.2362 37.4301C46.2548 37.0164 46.1673 36.6048 45.9821 36.2344L42.1926 28.6532C42.039 28.3468 41.9589 28.0088 41.9585 27.6661V19.8751C41.9585 15.7753 40.3298 11.8434 37.4309 8.94439C34.5319 6.04539 30.6 4.41675 26.5002 4.41675ZM26.5002 46.3751C25.1296 46.3758 23.7925 45.9514 22.6732 45.1604C21.5539 44.3693 20.7074 43.2506 20.2506 41.9584H32.7497C32.2929 43.2506 31.4465 44.3693 30.3272 45.1604C29.2079 45.9514 27.8708 46.3758 26.5002 46.3751Z" fill="#0C0563"/>
<circle cx="38.5" cy="10.5" r="7.5" fill="#CB1212"/>
</svg>
